<?xml version="1.0" encoding="utf-8" ?><svg xmlns="http://www.w3.org/2000/svg" xmlns:xlink="http://www.w3.org/1999/xlink" width="1024" height="1024" viewBox="156.138 181.385 700.234 664.47"><path fill="#0A090A" d="M424.366 182.217C435.163 181.385 446.023 182.341 456.509 185.047C481.376 191.305 499.828 207.48 512.736 229.129C516.983 220.006 522.841 211.723 530.027 204.679C544.756 190.406 564.56 182.583 585.067 182.937C622.547 183.672 688.126 218.028 718.311 240.423C731.689 250.347 749.521 266.174 761.054 278.254C822.793 343.073 856.372 429.693 854.453 519.19C852.642 611.219 813.627 698.589 746.309 761.367C714.935 791.111 672.788 816.111 632.287 830.516C611.867 837.779 601.827 843.007 579.382 842.386C549.292 841.053 526.412 822.03 512.26 796.652C501.768 811.773 493.69 822.172 476.944 831.208C454.324 843.319 427.792 845.855 403.287 838.248C373.657 829.195 348.876 808.675 334.457 781.254C333.22 781.254 331.983 781.233 330.746 781.191C302.107 780.241 278.718 771.937 257.33 752.287C232.335 729.323 220.863 699.749 222.287 665.889C217.805 661.844 211.408 658.018 206.608 653.907C172.444 624.648 162.161 573.526 181.861 533.148C184.671 527.389 187.689 522.212 191.116 516.628C188.885 513.366 186.676 510.089 184.49 506.798C156.138 463.845 170.097 400.132 212.622 371.757C215.872 369.589 219.128 367.435 222.395 365.294C216.896 336.425 232.315 300.488 252.192 279.939C274.934 256.426 301.369 247.385 333.363 246.386C337.002 237.829 343.722 228.458 349.64 221.337C368.348 198.869 395.243 184.79 424.366 182.217Z"/><path fill="#EC3176" d="M423.32 210.674C424.727 210.429 429.484 210.308 430.954 210.303C448.835 210.116 466.028 217.185 478.606 229.896C499.581 250.922 499.104 272.817 499.123 299.995L499.129 337.874C489.745 335.333 480.47 332.407 471.328 329.101C468.372 336.884 465.275 347.358 462.614 355.453C473.502 360.034 487.859 364.311 499.35 366.994L499.285 494.528C489.648 490.918 485.272 488.223 476.344 483.1C471.645 491.879 466.406 500.358 460.655 508.488C471.387 516.349 486.441 522.34 499.007 526.237C499.346 560.421 499.432 594.606 499.264 628.791C454.624 631.806 414.821 589.884 434.403 545.917C437.058 539.957 440.157 535.673 444.169 530.572C437.944 523.927 431.592 517.402 425.117 511C421.184 515.756 418.543 519.395 415.331 524.63C383.674 518.111 368.315 498.391 365.247 466.739C356.143 468.141 344.75 469.876 335.715 470.639C339.877 511.15 362.081 541.181 402.68 550.664C399.132 570.484 401.695 583.425 407.888 601.982C356.802 601.839 321.782 634.484 313.817 684.265C323.537 686.023 333.968 687.092 343.815 688.151C348.053 650.456 380.889 625.919 418.215 631.165C430.752 632.927 431.994 635.022 442.194 641.45C447.577 644.774 453.223 647.652 459.076 650.056C472.37 655.429 485.242 657.463 499.441 658.144C498.739 664.92 499.053 676.432 499.066 683.529L499.125 726.435C499.112 735.422 499.745 747.071 497.367 755.585C491.372 777.052 483.423 793.485 463.74 805.148C449.295 813.707 429.933 816.192 413.886 811.81C389.746 805.216 373.849 789.816 361.637 768.739C379.526 746.404 403.903 736.394 431.825 744.816C434.936 735.297 438.12 727.306 441.014 717.369C407.554 707.353 374.826 713.802 348.69 737.797C343.787 742.298 339.265 747.534 334.749 752.446C310.702 751.527 296.064 748.346 277.448 731.716C248.598 705.946 243.169 657.561 270.196 628.528C271.043 627.682 271.897 626.844 272.759 626.013C287.523 611.828 304.286 606.207 324.497 606.581C329.336 593.533 331.919 582.904 335.818 569.605C326.677 566.708 318.041 563.449 308.727 560.72C306.398 567.135 305.152 573.54 302.409 580.233C268.848 588.67 245.944 603.668 231.005 635.999C217.684 626.178 208.183 612.04 204.12 595.996C198.85 575.095 202.079 552.957 213.1 534.432C218.69 537.717 224.697 540.235 230.958 541.92C246.646 546.023 263.327 543.606 277.205 535.219C294.847 524.726 304.51 508.22 309.53 488.786C300.649 485.876 290.819 483.167 281.792 480.516C278.897 491.712 274.095 500.65 264.719 507.636C246.407 521.281 224.115 513.277 211.92 495.788C200.989 480.111 196.981 461.925 200.011 443.186C203.261 423.881 213.888 406.595 229.647 394.982C231.104 398.152 232.736 401.908 234.577 404.915C254.17 436.92 298.17 452.486 333.654 440.642C338.505 439.023 344.03 435.617 348.479 433.048C384.295 463.088 431.508 461.575 463.641 426.934C457.526 420.741 448.705 413.543 441.942 407.8C412.586 434.913 366.475 430.6 356.79 386.404C355.281 379.52 356.168 372.54 354.043 365.198C348.747 346.906 337.117 333.275 320.741 323.787C315.87 330.225 307.564 339.309 302.114 345.659C314.089 352.18 322.727 363.485 325.87 376.753C326.961 381.468 327.367 387.437 328.157 392.368C329.178 398.735 330.474 402.884 332.492 408.916C321.513 414.935 307.544 416.221 295.359 414.076C259.362 407.741 246.286 371.914 252.254 339.049C259.745 297.799 302.845 268.442 343.758 276.907C364.576 281.125 382.795 293.602 394.253 311.487C404.968 327.98 408.338 342.003 404.349 361.245C412.482 362.691 422.325 363.914 430.559 364.998C436.097 339.839 434 321.857 420.942 299.861C433.103 288.127 438.257 286.417 453.569 281.16C452.147 271.884 450.026 261.992 448.204 252.733C431.981 256.115 415.722 265.268 403.452 276.313C390.422 264.197 378.799 258.274 363.022 250.994C364.583 248.55 366.226 246.16 367.947 243.826C381.522 225.749 400.904 213.85 423.32 210.674Z"/><path fill="#3848BC" d="M580.777 211.193C594.444 209.169 614.689 218.371 627.662 223.423C606.918 266.967 626.039 304.633 668.137 324.72C682.601 331.622 696.676 334.177 708.353 346.447C720.775 359.501 725.882 374.12 728.628 391.593C734.236 421.144 758.665 446.687 786.72 456.452C800.237 461.157 808.84 462.517 822.913 462.433C825.392 484.12 826.855 504.609 826.15 526.473C803.042 534.599 778.092 548.351 767.541 571.153C763.903 579.014 761.356 588.528 753.994 593.446C745.375 599.204 736.36 596.891 726.755 597.921C718.235 598.911 710.018 601.677 702.633 606.038C676.518 621.748 669.198 662.93 689.091 685.979C692.709 690.171 697.357 694.434 700.162 699.014C705.241 707.308 701.339 716.587 698.989 724.968C695.742 737.396 698.774 748.065 705.059 758.834C686.469 773.114 673.648 781.335 652.192 791.537C646.374 785.593 638.561 773.509 636.648 765.306C635.538 758.344 641.21 750.088 644.04 743.909C655.083 719.799 652.525 696.11 636.662 675.005C635.468 673.587 634.219 672.215 632.918 670.894C612.126 649.667 579.009 642.281 552.987 656.872C545.09 661.3 536.215 660.973 527.38 660.85C526.624 642.821 527.368 621.4 527.402 603.015C541.736 597.345 555.965 589.835 571.288 599.006C577.344 602.63 582.062 606.439 589.09 608.164C607.815 612.76 625.288 603.992 635.938 588.515C638.059 586.206 640.785 577.631 642.847 576.073C657.317 565.134 670.473 562.311 675.489 542.082C678.168 530.811 676.209 518.937 670.053 509.123C656.245 486.909 628.339 482.849 605.339 491.43C594.689 495.403 586.093 501.289 574.859 503.012C559.175 505.419 543.119 501.798 527.857 498.188C527.505 492.741 527.561 486.638 527.495 481.135C558.767 476.83 566.358 464.871 580.786 437.743C587.755 424.639 591.855 426.928 604.771 425.017C628.839 421.454 648.907 404.45 652.91 379.85C656.755 356.225 644.279 332.988 622.385 323.21C613.542 319.262 600.043 317.406 593.738 308.625C585.164 293.741 590.056 280.219 577.427 264.985C565.059 250.065 554.036 246.264 535.529 243.566C544.6 224.066 559.204 213.516 580.777 211.193Z"/><path fill="#FAFAF9" d="M576.532 679.147C606.961 675.555 630.249 707.946 616.808 733.429C597.504 770.027 606.496 771.474 624.455 803.271C614.981 807.088 599.034 812.555 589.116 813.887C556.34 817.396 533.196 790.815 527.606 760.785C526.419 754.405 527.245 743.177 527.284 736.25L527.414 689.179C536.782 688.946 548.859 688.211 557.646 685.327C564.962 682.926 568.504 680.528 576.532 679.147Z"/><path fill="#FAFAF9" d="M527.43 271.29C536.76 272.222 547.169 274.142 553.382 281.77C559.642 289.457 559.063 298.899 561.454 307.988C563.203 314.735 566.36 321.035 570.716 326.477C578.529 336.318 588.098 342.031 599.785 346.484C603.781 348.007 609.039 349.383 612.658 351.459C616.395 353.63 619.417 356.844 621.352 360.709C626.568 371.036 622.652 383.851 613.534 390.449C605.507 396.259 596.912 395.982 587.611 397.747C582.579 398.701 578.01 400.339 573.387 402.398C553.261 413.643 554.235 425.201 543.572 443.039C539.816 449.322 534.327 451.638 527.491 452.99C527.163 432.12 527.435 410.576 527.438 389.666L527.43 271.29Z"/><path fill="#FAFAF9" d="M653.467 234.814C727.666 272.016 781.95 330.795 809.236 409.903C812.065 418.105 814.483 425.935 816.399 434.401L811.865 433.841C803.025 432.775 794.318 429.386 786.763 425.655C759.795 412.335 757.94 390.797 751.311 365.208C745.12 341.307 723.506 316.003 700.391 306.944C691.94 303.632 682.034 299.733 673.733 295.868C650.229 283.71 640.683 258.406 653.467 234.814Z"/><path fill="#FAFAF9" d="M821.288 558.894L822.292 559.118C823.251 562.19 816.762 588.524 815.499 593.247C802.792 640.59 779.167 684.296 746.52 720.86C743.172 724.642 732.841 736.479 729.009 738.697L728.111 738.234C726.429 734.012 730.146 724.432 731.613 719.858C734.711 703.578 732.378 690.18 721.304 677.161C717.129 672.251 713.36 669.757 710.432 663.681C707.338 657.284 706.963 649.908 709.393 643.231C710.939 638.9 713.03 635.946 716.226 632.86C725.196 624.196 735.033 626.753 746.006 625.693C752.526 625.064 763.093 621.77 768.306 617.811C797.442 595.686 781.977 577.563 821.288 558.894Z"/><path fill="#FAFAF9" d="M628.276 516.625C632.946 516.047 636.334 516.653 640.429 519.266C646.176 522.934 649.816 532.567 644.904 538.249C639.01 545.067 630.176 546.132 623.548 552.591C616.94 559.03 615.49 566.04 610.297 573.311C608.356 575.967 601.684 580.955 598.784 580.673C595.202 580.325 587.921 574.663 584.756 572.809C573.536 566.233 562.121 564.504 549.452 566.06C541.37 566.909 534.777 569.623 527.401 572.689C527.497 557.629 527.447 542.569 527.25 527.51C543.712 530.671 565.095 535.777 581.398 531.63C597.094 527.638 611.984 519.502 628.276 516.625Z"/></svg>